# Blender v2.62 (sub 0) OBJ File: 'HeadYaw.blend'
# www.blender.org
mtllib Nao.mtl
o HeadYaw_Mesh.001
v -12.600000 -12.600000 -12.477100
v 12.600000 -12.600000 -12.477100
v 12.600000 -12.600000 12.722900
v -12.600000 -12.600000 12.722900
v 12.600000 12.600000 -12.477200
v -12.600000 12.600000 -12.477100
v -12.600000 12.600000 12.722900
v 12.600000 12.600000 12.722800
vt 0.505089 0.166504
vn -0.000000 -1.000000 -0.000000
vn 0.000000 1.000000 0.000000
vn 1.000000 0.000000 0.000000
vn -1.000000 0.000000 0.000000
usemtl Nao_Structure
s off
f 1/1/1 2/1/1 3/1/1
f 1/1/1 3/1/1 4/1/1
f 5/1/2 6/1/2 8/1/2
f 6/1/2 7/1/2 8/1/2
f 2/1/3 5/1/3 8/1/3
f 2/1/3 8/1/3 3/1/3
f 7/1/4 6/1/4 4/1/4
f 6/1/4 1/1/4 4/1/4
