# Blender v2.62 (sub 0) OBJ File: 'LAnklePitch.blend'
# www.blender.org
mtllib Nao.mtl
o LAnklePitch_Mesh.002
v 39.799500 11.611600 17.172800
v 39.799500 11.611600 21.872700
v 39.799500 -12.488400 21.872700
v 39.799500 -12.488400 17.172800
v 20.807501 11.611600 42.129200
v 20.807501 -12.488400 42.129200
v 30.843300 -12.488400 34.616600
v 30.843300 11.611600 34.616600
v 9.061730 11.611600 46.510201
v 9.061730 -12.488400 46.510201
v -3.442560 11.611600 47.404499
v -3.442560 -12.488400 47.404499
v -15.692300 11.611600 44.739799
v -15.692300 -12.488400 44.739799
v -26.695101 11.611600 38.731800
v -26.695101 -12.488400 38.731800
v -35.559502 11.611600 29.867300
v -35.559502 -12.488400 29.867300
v -41.567501 11.611600 18.864599
v -41.567501 -12.488400 18.864599
v -44.332298 11.611600 10.998100
v -44.332298 -12.488400 10.998100
v 36.256001 -12.488400 28.280800
v 36.256001 11.611600 28.280800
v 37.313499 14.270400 17.263599
v 37.313499 14.270400 21.662800
v 28.930599 14.270400 33.591000
v 19.537100 14.270400 40.622898
v 8.543000 14.270400 44.723400
v -3.161020 14.270400 45.560501
v -14.626800 14.270400 43.066299
v -24.925400 14.270400 37.442799
v -33.222500 14.270400 29.145700
v -38.846001 14.270400 18.847099
v -41.440201 14.270400 10.998100
v 33.862499 14.270400 27.897499
v -32.600498 6.475920 -13.133400
v -32.600498 11.956100 -9.471710
v 27.899500 11.956100 -9.471710
v 27.899500 6.475920 -13.133400
v -32.600498 0.011639 -14.419300
v 27.899500 0.011631 -14.419300
v -32.600498 -6.452650 -13.133400
v 27.899500 -6.452660 -13.133400
v -32.600498 -11.932800 -9.471710
v 27.899500 -11.932800 -9.471710
v -32.600498 14.246800 -6.731630
v 27.899500 14.246800 -6.731630
v -32.600498 -14.223500 -6.731630
v 27.899500 -14.223500 -6.731630
v 27.899500 11.956100 -9.471710
v 27.899500 14.246800 -6.731630
v 27.899500 -14.223500 -6.731630
v 27.899500 -11.932800 -9.471710
v 27.899500 -6.452660 -13.133400
v 27.899500 6.475920 -13.133400
v 27.899500 0.011631 -14.419300
v -32.600498 11.956100 -9.471710
v -32.600498 -11.932800 -9.471710
v -32.600498 -14.223500 -6.731630
v -32.600498 14.246800 -6.731630
v -32.600498 6.475920 -13.133400
v -32.600498 -6.452650 -13.133400
v -32.600498 0.011639 -14.419300
v 37.313499 -14.247200 21.662800
v 37.313499 -14.247200 17.263599
v 28.930599 -14.247200 33.591000
v 33.862499 -14.247200 27.897499
v 19.537100 -14.247200 40.622898
v 8.542990 -14.247200 44.723400
v -3.161020 -14.247200 45.560501
v -14.626800 -14.247200 43.066299
v -24.925400 -14.247200 37.442902
v -33.222500 -14.247200 29.145700
v -38.846001 -14.247200 18.847099
v -41.440201 -14.247200 10.998100
v 19.537100 14.270400 40.622898
v -14.626800 14.270400 43.066299
v -3.161020 14.270400 45.560501
v 8.543000 14.270400 44.723400
v 28.930599 14.270400 33.591000
v -24.925400 14.270400 37.442799
v 33.862499 14.270400 27.897499
v -33.222500 14.270400 29.145700
v -32.600498 14.270400 11.268400
v 27.899500 14.270400 11.268400
v 27.899500 -14.247200 11.268400
v -32.600498 -14.247200 11.268400
v 27.899500 14.270400 11.268400
v 27.899500 -14.247200 11.268400
v -32.600498 -14.247200 11.268400
v -32.600498 14.270400 11.268400
v -44.332298 11.611600 10.998100
v -41.440201 14.270400 10.998100
v -41.440201 -14.247200 10.998100
v -44.332298 -12.488400 10.998100
v 39.799500 11.611600 17.172800
v 39.799500 -12.488400 17.172800
v 37.313499 -14.247200 17.263599
v 37.313499 14.270400 17.263599
v -32.600498 14.270400 18.268400
v 27.899500 14.270400 18.268400
v 27.899500 -14.247200 18.268400
v -32.600498 -14.247200 18.268400
v 27.899500 14.270400 18.268400
v 27.899500 -14.247200 18.268400
v -41.440201 14.270400 10.998100
v -32.600498 14.270400 11.268400
v -32.600498 -14.247200 11.268400
v -41.440201 -14.247200 10.998100
v -38.846001 14.270400 18.847099
v -41.440201 14.270400 10.998100
v -41.440201 -14.247200 10.998100
v -38.846001 -14.247200 18.847099
v 27.899500 -14.247200 18.268400
v 27.899500 14.270400 18.268400
v 37.313499 14.270400 17.263599
v 37.313499 14.270400 21.662800
v 33.862499 -14.247200 27.897499
v 37.313499 -14.247200 17.263599
v 37.313499 -14.247200 21.662800
v -33.222500 -14.247200 29.145700
v 28.930599 -14.247200 33.591000
v -24.925400 -14.247200 37.442902
v 19.537100 -14.247200 40.622898
v -14.626800 -14.247200 43.066299
v 8.542990 -14.247200 44.723400
v -3.161020 -14.247200 45.560501
vt 0.505089 0.166504
vn 0.931303 0.364177 0.000000
vn 0.909604 0.346843 0.228645
vn 0.890378 -0.455153 0.000000
vn 0.875271 -0.430647 0.220038
vn 0.460585 0.301401 0.834834
vn 0.444777 -0.391675 0.805414
vn 0.627888 -0.407880 0.662831
vn 0.651997 0.316477 0.688955
vn 0.204596 0.292581 0.934080
vn 0.197821 -0.382702 0.902432
vn -0.069796 0.292947 0.953551
vn -0.067629 -0.383099 0.921201
vn -0.337138 0.302499 0.891507
vn -0.325663 -0.392773 0.860012
vn -0.572954 0.319437 0.754753
vn -0.551927 -0.409436 0.726432
vn -0.757042 0.340922 0.557329
vn -0.727256 -0.429701 0.535173
vn -0.853633 0.365673 0.370861
vn -0.816858 -0.454512 0.355083
vn -0.881863 0.355296 0.309915
vn -0.851802 -0.429823 0.299387
vn 0.748589 -0.423505 0.510117
vn 0.779168 0.332377 0.531358
vn 0.707816 0.677694 0.199225
vn 0.730430 0.682943 0.000000
vn 0.531602 0.609333 0.588244
vn 0.379742 0.586657 0.715232
vn 0.171209 0.572314 0.801935
vn -0.054781 0.572924 0.817743
vn -0.273202 0.588427 0.760949
vn -0.460189 0.616169 0.639149
vn -0.596728 0.651601 0.468276
vn -0.665059 0.682760 0.302469
vn -0.664052 0.711478 0.229713
vn 0.627125 0.632405 0.454695
vn 0.000000 0.382672 -0.923856
vn 0.000000 0.668172 -0.743980
vn 0.000000 0.000000 -1.000000
vn 0.000000 -0.382672 -0.923856
vn 0.000000 -0.668172 -0.743980
vn 0.000000 0.939756 -0.341777
vn 0.000000 -0.939756 -0.341777
vn 1.000000 0.000000 0.000000
vn 0.999969 0.000000 0.000000
vn -1.000000 0.000000 0.000000
vn -0.999969 0.000000 0.000000
vn 0.560839 -0.812098 0.161016
vn 0.577532 -0.816340 0.000000
vn 0.435896 -0.757439 0.486007
vn 0.508896 -0.776055 0.372387
vn 0.314341 -0.738212 0.596820
vn 0.142857 -0.725761 0.672903
vn -0.045015 -0.726310 0.685873
vn -0.225166 -0.739738 0.634053
vn -0.375103 -0.763085 0.526261
vn -0.478591 -0.791681 0.379620
vn -0.525651 -0.815760 0.241188
vn -0.516007 -0.837672 0.178930
vn 0.000000 1.000000 0.000000
vn 0.000000 0.999969 0.000000
vn 0.000000 0.999969 -0.000641
vn 0.000000 0.999969 -0.000427
vn 0.000000 -0.999969 -0.000427
vn 0.000000 -0.999969 -0.000641
vn 0.000000 0.000000 -0.999969
vn -0.036470 0.000000 -0.999329
vn -0.079836 0.000000 -0.996796
vn -0.083621 0.000000 -0.996490
vn 0.000000 -0.999969 0.000000
vn 0.030549 0.000000 -0.999512
vn 0.000000 -1.000000 0.000000
vn -0.106113 0.000000 -0.994324
usemtl Nao_Structure
s 1
f 1/1/1 2/1/2 4/1/3
f 2/1/2 3/1/4 4/1/3
f 5/1/5 6/1/6 7/1/7
f 5/1/5 7/1/7 8/1/8
f 9/1/9 10/1/10 5/1/5
f 10/1/10 6/1/6 5/1/5
f 11/1/11 12/1/12 9/1/9
f 12/1/12 10/1/10 9/1/9
f 13/1/13 14/1/14 12/1/12
f 13/1/13 12/1/12 11/1/11
f 15/1/15 16/1/16 14/1/14
f 15/1/15 14/1/14 13/1/13
f 17/1/17 18/1/18 15/1/15
f 18/1/18 16/1/16 15/1/15
f 19/1/19 20/1/20 18/1/18
f 19/1/19 18/1/18 17/1/17
f 21/1/21 22/1/22 19/1/19
f 22/1/22 20/1/20 19/1/19
f 8/1/8 7/1/7 23/1/23
f 8/1/8 23/1/23 24/1/24
f 3/1/4 2/1/2 23/1/23
f 2/1/2 24/1/24 23/1/23
f 2/1/2 1/1/1 26/1/25
f 1/1/1 25/1/26 26/1/25
f 8/1/8 27/1/27 5/1/5
f 27/1/27 28/1/28 5/1/5
f 5/1/5 28/1/28 9/1/9
f 28/1/28 29/1/29 9/1/9
f 9/1/9 29/1/29 30/1/30
f 9/1/9 30/1/30 11/1/11
f 11/1/11 30/1/30 31/1/31
f 11/1/11 31/1/31 13/1/13
f 13/1/13 31/1/31 32/1/32
f 13/1/13 32/1/32 15/1/15
f 15/1/15 32/1/32 33/1/33
f 15/1/15 33/1/33 17/1/17
f 17/1/17 33/1/33 34/1/34
f 17/1/17 34/1/34 19/1/19
f 19/1/19 34/1/34 35/1/35
f 19/1/19 35/1/35 21/1/21
f 24/1/24 36/1/36 8/1/8
f 36/1/36 27/1/27 8/1/8
f 2/1/2 26/1/25 24/1/24
f 26/1/25 36/1/36 24/1/24
f 37/1/37 38/1/38 39/1/38
f 37/1/37 39/1/38 40/1/37
f 41/1/39 37/1/37 40/1/37
f 41/1/39 40/1/37 42/1/39
f 43/1/40 41/1/39 42/1/39
f 43/1/40 42/1/39 44/1/40
f 45/1/41 43/1/40 44/1/40
f 45/1/41 44/1/40 46/1/41
f 38/1/38 47/1/42 48/1/42
f 38/1/38 48/1/42 39/1/38
f 49/1/43 45/1/41 46/1/41
f 49/1/43 46/1/41 50/1/43
f 51/1/44 52/1/44 53/1/44
f 51/1/44 53/1/44 54/1/44
f 51/1/44 54/1/44 55/1/44
f 51/1/44 55/1/44 56/1/44
f 56/1/44 55/1/44 57/1/45
f 58/1/46 59/1/46 61/1/46
f 59/1/46 60/1/46 61/1/46
f 58/1/46 62/1/46 59/1/46
f 62/1/46 63/1/46 59/1/46
f 62/1/46 64/1/47 63/1/46
f 4/1/3 3/1/4 65/1/48
f 4/1/3 65/1/48 66/1/49
f 7/1/7 67/1/50 68/1/51
f 7/1/7 68/1/51 23/1/23
f 3/1/4 23/1/23 65/1/48
f 23/1/23 68/1/51 65/1/48
f 6/1/6 69/1/52 67/1/50
f 6/1/6 67/1/50 7/1/7
f 6/1/6 10/1/10 69/1/52
f 10/1/10 70/1/53 69/1/52
f 10/1/10 12/1/12 71/1/54
f 10/1/10 71/1/54 70/1/53
f 12/1/12 14/1/14 72/1/55
f 12/1/12 72/1/55 71/1/54
f 14/1/14 16/1/16 73/1/56
f 14/1/14 73/1/56 72/1/55
f 16/1/16 18/1/18 74/1/57
f 16/1/16 74/1/57 73/1/56
f 18/1/18 20/1/20 75/1/58
f 18/1/18 75/1/58 74/1/57
f 20/1/20 22/1/22 76/1/59
f 20/1/20 76/1/59 75/1/58
f 77/1/60 78/1/60 79/1/61
f 77/1/60 79/1/61 80/1/60
f 77/1/60 81/1/61 82/1/60
f 77/1/60 82/1/60 78/1/60
f 81/1/61 83/1/60 82/1/60
f 83/1/60 84/1/60 82/1/60
f 48/1/42 47/1/42 86/1/62
f 47/1/42 85/1/63 86/1/62
f 49/1/43 50/1/43 88/1/64
f 50/1/43 87/1/65 88/1/64
f 52/1/44 89/1/44 53/1/44
f 89/1/44 90/1/44 53/1/44
f 61/1/46 60/1/46 92/1/46
f 60/1/46 91/1/47 92/1/46
f 93/1/39 94/1/39 95/1/39
f 93/1/39 95/1/39 96/1/66
f 97/1/67 98/1/67 99/1/68
f 97/1/67 99/1/68 100/1/69
f 86/1/62 85/1/63 102/1/60
f 85/1/63 101/1/60 102/1/60
f 88/1/64 87/1/65 104/1/70
f 87/1/65 103/1/70 104/1/70
f 90/1/44 89/1/44 106/1/44
f 89/1/44 105/1/44 106/1/44
f 107/1/71 108/1/71 110/1/71
f 108/1/71 109/1/71 110/1/71
f 111/1/60 101/1/60 85/1/63
f 111/1/60 85/1/63 112/1/60
f 113/1/72 88/1/64 114/1/72
f 88/1/64 104/1/70 114/1/72
f 84/1/60 101/1/60 111/1/60
f 84/1/60 83/1/60 102/1/60
f 84/1/60 102/1/60 101/1/60
f 100/1/69 99/1/68 116/1/73
f 99/1/68 115/1/73 116/1/73
f 117/1/60 102/1/60 118/1/60
f 102/1/60 83/1/60 118/1/60
f 119/1/72 103/1/70 121/1/72
f 103/1/70 120/1/72 121/1/72
f 114/1/72 104/1/70 122/1/72
f 119/1/72 122/1/72 103/1/70
f 122/1/72 104/1/70 103/1/70
f 119/1/72 123/1/70 124/1/72
f 119/1/72 124/1/72 122/1/72
f 124/1/72 123/1/70 125/1/72
f 124/1/72 125/1/72 126/1/72
f 126/1/72 125/1/72 128/1/70
f 125/1/72 127/1/72 128/1/70
