mtllib Nao.mtl
o LHipRoll_Mesh.009
v -42.700001 -11.153300 13.026400
v -42.700001 -13.651100 10.198700
v 8.600000 -13.651100 10.198700
v 8.600000 -11.153300 13.026400
v -42.700001 -5.825620 16.586201
v 8.600000 -5.825620 16.586201
v -42.700001 0.458811 17.836201
v 8.600000 0.458808 17.836201
v -42.700001 6.743240 16.586201
v 8.600000 6.743240 16.586201
v -42.700001 12.070900 13.026400
v 8.600000 12.070900 13.026400
v -42.700001 14.568700 10.198700
v 8.600000 14.568700 10.198700
v -42.700001 -13.651100 -16.401300
v 8.600000 -13.651100 -16.401300
v 8.600000 14.568700 -16.401300
v -42.700001 14.568700 -16.401300
v -24.183100 12.558800 -23.868799
v -27.096701 12.558800 -20.273500
v -27.096701 14.458800 -17.873501
v -24.183100 14.458800 -21.468800
v -13.087800 12.558800 -31.282400
v -13.087800 14.458800 -28.882500
v -0.000001 12.558800 -33.885799
v -0.000001 14.458800 -31.485800
v 13.087800 12.558800 -31.282400
v 13.087800 14.458800 -28.882500
v 24.183100 12.558800 -23.868799
v 24.183100 14.458800 -21.468800
v -42.696701 12.558800 -20.273500
v -42.696701 14.458800 -17.873501
v -24.183100 14.458800 -21.468800
v 13.087800 14.458800 -28.882500
v -0.000001 14.458800 -31.485800
v -13.087800 14.458800 -28.882500
v -27.096701 14.458800 -17.873501
v 24.183100 14.458800 -21.468800
v -42.696701 14.458800 -17.873501
v -42.696701 -11.641200 -20.273500
v -27.096701 -11.641200 -20.273500
v -27.096701 -13.541200 -17.873501
v -42.696701 -13.541200 -17.873501
v 24.183100 -11.641200 -23.868799
v 24.183100 -13.541200 -21.468800
v 13.087800 -13.541200 -28.882500
v 13.087800 -11.641200 -31.282400
v -0.000002 -13.541200 -31.485800
v -0.000002 -11.641200 -33.885700
v -13.087800 -13.541200 -28.882500
v -13.087800 -11.641200 -31.282400
v -24.183100 -13.541200 -21.468800
v -24.183100 -11.641200 -23.868799
v -42.696701 -13.541200 -17.873501
v -27.096701 -13.541200 -17.873501
v -0.000002 -13.541200 -31.485800
v 13.087800 -13.541200 -28.882500
v -24.183100 -13.541200 -21.468800
v -13.087800 -13.541200 -28.882500
v 24.183100 -13.541200 -21.468800
v -42.696701 12.558800 -20.273500
v -42.696701 -11.641200 -20.273500
v -42.696701 -13.541200 -17.873501
v -42.696701 14.458800 -17.873501
v -42.700001 -13.651100 -16.401300
v -42.700001 14.568700 -16.401300
v -42.700001 -13.651100 10.198700
v -42.700001 14.568700 10.198700
v -42.700001 -11.153300 13.026400
v -42.700001 12.070900 13.026400
v -42.700001 -5.825620 16.586201
v -42.700001 6.743240 16.586201
v -42.700001 0.458811 17.836201
v 8.600000 -13.651100 10.198700
v 8.600000 -13.651100 -16.401300
v 8.600000 14.568700 -16.401300
v 8.600000 14.568700 10.198700
v 8.600000 12.070900 13.026400
v 8.600000 -11.153300 13.026400
v 8.600000 6.743240 16.586201
v 8.600000 -5.825620 16.586201
v 8.600000 0.458808 17.836201
v 24.183100 -13.541200 -21.468800
v 24.183100 14.458800 -21.468800
v 24.183100 14.458800 -16.468800
v 24.183100 -13.541200 -16.468800
v 8.600000 -13.651100 -16.401300
v 24.183100 -13.541200 -16.468800
v 24.183100 14.458800 -16.468800
v 8.600000 14.568700 -16.401300
v 24.183100 -13.541200 -16.468800
v 24.183100 14.458800 -16.468800
vt 0.505089 0.166504
vn 0.000000 -0.657979 0.753014
vn 0.000000 -0.935270 0.353923
vn 0.000000 -0.382672 0.923856
vn 0.000000 0.000000 1.000000
vn 0.000000 0.382672 0.923856
vn 0.000000 0.657979 0.753014
vn 0.000000 0.935270 0.353923
vn 0.000000 -0.999298 -0.037202
vn -0.000671 -0.999847 -0.016999
vn 0.000000 0.999298 -0.037202
vn -0.000671 0.999847 -0.016999
vn -0.613880 0.364635 -0.700095
vn -0.435499 0.442824 -0.783715
vn -0.536790 0.661489 -0.523667
vn -0.235511 0.761986 -0.603229
vn -0.339885 0.402142 -0.850124
vn -0.278146 0.753075 -0.596210
vn 0.000000 0.415571 -0.909543
vn 0.000000 0.784020 -0.620685
vn 0.339885 0.402142 -0.850124
vn 0.278146 0.753075 -0.596210
vn 0.804804 0.303079 -0.510300
vn 0.789331 0.481338 -0.381054
vn 0.000000 0.435469 -0.900174
vn 0.000000 1.000000 0.000000
vn -0.000031 0.998291 -0.058016
vn 0.003876 0.999969 -0.003113
vn 0.000000 0.997223 -0.074435
vn 0.000000 -0.435469 -0.900174
vn -0.435499 -0.442824 -0.783715
vn 0.000000 -0.784020 -0.620685
vn -0.235511 -0.761986 -0.603229
vn 0.804804 -0.303079 -0.510300
vn 0.789331 -0.481338 -0.381054
vn 0.278146 -0.753075 -0.596210
vn 0.339854 -0.402142 -0.850124
vn 0.000000 -0.784020 -0.620716
vn 0.000000 -0.415540 -0.909543
vn -0.339854 -0.402142 -0.850124
vn -0.278146 -0.753075 -0.596210
vn -0.613880 -0.364635 -0.700095
vn -0.536790 -0.661489 -0.523667
vn 0.000000 -0.997223 -0.074435
vn -0.000031 -0.998291 -0.058016
vn 0.000000 -1.000000 0.000000
vn 0.000000 -0.999969 0.000000
vn 0.003876 -0.999969 -0.003113
vn -1.000000 0.000000 0.000000
vn -0.999969 0.000000 -0.001434
vn -0.999969 0.000000 -0.001068
vn -0.999969 0.000000 0.000000
vn 1.000000 0.000000 0.000000
vn 0.004303 0.000000 0.999969
vn 0.007050 -0.999969 0.000000
vn 0.007050 0.999969 0.000000
usemtl Nao_Structure
s 1
f 1/1/1 2/1/2 4/1/1
f 2/1/2 3/1/2 4/1/1
f 5/1/3 1/1/1 6/1/3
f 1/1/1 4/1/1 6/1/3
f 7/1/4 5/1/3 8/1/4
f 5/1/3 6/1/3 8/1/4
f 9/1/5 7/1/4 10/1/5
f 7/1/4 8/1/4 10/1/5
f 11/1/6 9/1/5 12/1/6
f 9/1/5 10/1/5 12/1/6
f 13/1/7 11/1/6 14/1/7
f 11/1/6 12/1/6 14/1/7
f 3/1/2 2/1/2 15/1/8
f 3/1/2 15/1/8 16/1/9
f 13/1/7 14/1/7 18/1/10
f 14/1/7 17/1/11 18/1/10
f 19/1/12 20/1/13 22/1/14
f 20/1/13 21/1/15 22/1/14
f 23/1/16 19/1/12 24/1/17
f 19/1/12 22/1/14 24/1/17
f 25/1/18 23/1/16 26/1/19
f 23/1/16 24/1/17 26/1/19
f 27/1/20 25/1/18 26/1/19
f 27/1/20 26/1/19 28/1/21
f 29/1/22 27/1/20 28/1/21
f 29/1/22 28/1/21 30/1/23
f 21/1/15 20/1/13 32/1/19
f 20/1/13 31/1/24 32/1/19
f 33/1/25 34/1/25 35/1/25
f 33/1/25 35/1/25 36/1/25
f 33/1/25 37/1/26 34/1/25
f 37/1/26 38/1/27 34/1/25
f 17/1/11 37/1/26 18/1/10
f 37/1/26 39/1/28 18/1/10
f 40/1/29 41/1/30 43/1/31
f 41/1/30 42/1/32 43/1/31
f 44/1/33 45/1/34 46/1/35
f 44/1/33 46/1/35 47/1/36
f 47/1/36 46/1/35 48/1/37
f 47/1/36 48/1/37 49/1/38
f 49/1/38 48/1/37 51/1/39
f 48/1/37 50/1/40 51/1/39
f 51/1/39 50/1/40 53/1/41
f 50/1/40 52/1/42 53/1/41
f 53/1/41 52/1/42 41/1/30
f 52/1/42 42/1/32 41/1/30
f 23/1/16 25/1/18 49/1/38
f 23/1/16 49/1/38 51/1/39
f 25/1/18 27/1/20 49/1/38
f 27/1/20 47/1/36 49/1/38
f 27/1/20 29/1/22 44/1/33
f 27/1/20 44/1/33 47/1/36
f 19/1/12 23/1/16 51/1/39
f 19/1/12 51/1/39 53/1/41
f 20/1/13 19/1/12 53/1/41
f 20/1/13 53/1/41 41/1/30
f 20/1/13 41/1/30 31/1/24
f 41/1/30 40/1/29 31/1/24
f 15/1/8 54/1/43 55/1/44
f 15/1/8 55/1/44 16/1/9
f 56/1/45 57/1/46 58/1/45
f 56/1/45 58/1/45 59/1/46
f 55/1/44 58/1/45 57/1/46
f 55/1/44 57/1/46 60/1/47
f 61/1/48 62/1/48 63/1/49
f 61/1/48 63/1/49 64/1/49
f 65/1/50 66/1/50 64/1/49
f 65/1/50 64/1/49 63/1/49
f 67/1/51 68/1/48 65/1/50
f 68/1/48 66/1/50 65/1/50
f 67/1/51 69/1/48 70/1/48
f 67/1/51 70/1/48 68/1/48
f 69/1/48 71/1/48 70/1/48
f 71/1/48 72/1/48 70/1/48
f 71/1/48 73/1/48 72/1/48
f 74/1/52 75/1/52 76/1/52
f 74/1/52 76/1/52 77/1/52
f 74/1/52 77/1/52 78/1/52
f 74/1/52 78/1/52 79/1/52
f 79/1/52 78/1/52 81/1/52
f 78/1/52 80/1/52 81/1/52
f 81/1/52 80/1/52 82/1/52
f 29/1/22 30/1/23 44/1/33
f 30/1/23 45/1/34 44/1/33
f 83/1/52 84/1/52 86/1/52
f 84/1/52 85/1/52 86/1/52
f 87/1/53 88/1/53 89/1/53
f 87/1/53 89/1/53 90/1/53
f 55/1/44 60/1/47 16/1/9
f 60/1/47 91/1/54 16/1/9
f 37/1/26 17/1/11 38/1/27
f 17/1/11 92/1/55 38/1/27
