# Blender v2.62 (sub 0) OBJ File: 'RHipRoll.blend'
# www.blender.org
mtllib Nao.mtl
o RHipRoll_Mesh.021
v -42.700001 12.207700 12.100900
v 8.600000 12.207700 12.100900
v 8.600000 14.705500 9.273230
v -42.700001 14.705500 9.273230
v -42.700001 6.880050 15.660800
v 8.600000 6.880060 15.660700
v -42.700001 0.595627 16.910801
v 8.600000 0.595631 16.910801
v -42.700001 -5.688800 15.660800
v 8.600000 -5.688800 15.660800
v -42.700001 -11.016500 12.100900
v 8.600000 -11.016500 12.100900
v -42.700001 -13.514300 9.273230
v 8.600000 -13.514300 9.273230
v 8.600000 14.705500 -17.326799
v -42.700001 14.705500 -17.326799
v -42.700001 -13.514300 -17.326799
v 8.600000 -13.514300 -17.326799
v -27.096701 -13.404400 -18.799000
v -27.096701 -11.504400 -21.198999
v -24.183100 -11.504400 -24.794201
v -24.183100 -13.404400 -22.394199
v -13.087800 -11.504400 -32.207901
v -13.087800 -13.404400 -29.807899
v -0.000001 -11.504400 -34.811199
v -0.000001 -13.404400 -32.411201
v 13.087800 -11.504400 -32.207901
v 13.087800 -13.404400 -29.807899
v 24.183100 -11.504400 -24.794201
v 24.183100 -13.404400 -22.394199
v -42.696701 -11.504400 -21.198999
v -42.696701 -13.404400 -18.799000
v -24.183100 -13.404400 -22.394199
v -13.087800 -13.404400 -29.807899
v -0.000001 -13.404400 -32.411201
v 13.087800 -13.404400 -29.807899
v 24.183100 -13.404400 -22.394199
v -27.096701 -13.404400 -18.799000
v -42.696701 -13.404400 -18.799000
v -42.696701 12.695600 -21.198999
v -42.696701 14.595600 -18.799000
v -27.096701 14.595600 -18.799000
v -27.096701 12.695600 -21.198999
v 24.183100 12.695600 -24.794201
v 13.087800 12.695600 -32.207901
v 13.087800 14.595600 -29.807899
v 24.183100 14.595600 -22.394199
v -0.000002 12.695600 -34.811199
v -0.000002 14.595600 -32.411201
v -13.087800 12.695600 -32.207901
v -13.087800 14.595600 -29.807899
v -24.183100 12.695600 -24.794201
v -24.183100 14.595600 -22.394199
v -27.096701 14.595600 -18.799000
v -42.696701 14.595600 -18.799000
v -0.000002 14.595600 -32.411201
v -13.087800 14.595600 -29.807899
v -24.183100 14.595600 -22.394199
v 13.087800 14.595600 -29.807899
v 24.183100 14.595600 -22.394199
v -42.696701 -11.504400 -21.198999
v -42.696701 -13.404400 -18.799000
v -42.696701 14.595600 -18.799000
v -42.696701 12.695600 -21.198999
v -42.700001 14.705500 -17.326799
v -42.700001 -13.514300 -17.326799
v -42.700001 14.705500 9.273230
v -42.700001 -13.514300 9.273230
v -42.700001 -11.016500 12.100900
v -42.700001 12.207700 12.100900
v -42.700001 -5.688800 15.660800
v -42.700001 6.880050 15.660800
v -42.700001 0.595627 16.910801
v 8.600000 14.705500 9.273230
v 8.600000 -13.514300 9.273230
v 8.600000 -13.514300 -17.326799
v 8.600000 14.705500 -17.326799
v 8.600000 12.207700 12.100900
v 8.600000 -11.016500 12.100900
v 8.600000 6.880060 15.660700
v 8.600000 -5.688800 15.660800
v 8.600000 0.595631 16.910801
v 24.183100 14.595600 -22.394199
v 24.183100 14.595600 -17.394199
v 24.183100 -13.404400 -17.394199
v 24.183100 -13.404400 -22.394199
v 8.600000 14.705500 -17.326799
v 8.600000 -13.514300 -17.326799
v 24.183100 -13.404400 -17.394199
v 24.183100 14.595600 -17.394199
v 24.183100 14.595600 -17.394199
v 24.183100 -13.404400 -17.394199
vt 0.505089 0.166504
vn 0.000000 0.657979 0.753014
vn 0.000000 0.935270 0.353923
vn 0.000000 0.382672 0.923856
vn 0.000000 0.000000 1.000000
vn 0.000000 0.000000 0.999969
vn 0.000000 -0.382672 0.923856
vn 0.000000 -0.657979 0.753014
vn 0.000000 -0.935270 0.353923
vn -0.000671 0.999847 -0.016999
vn 0.000000 0.999298 -0.037202
vn 0.000000 -0.999298 -0.037202
vn -0.000671 -0.999847 -0.016999
vn -0.235511 -0.761986 -0.603229
vn -0.435499 -0.442824 -0.783715
vn -0.536790 -0.661489 -0.523667
vn -0.613880 -0.364635 -0.700095
vn -0.339885 -0.402173 -0.850124
vn -0.278146 -0.753075 -0.596179
vn 0.000000 -0.415571 -0.909543
vn 0.000000 -0.784020 -0.620685
vn 0.339885 -0.402142 -0.850124
vn 0.278146 -0.753075 -0.596179
vn 0.804804 -0.303079 -0.510300
vn 0.789331 -0.481338 -0.381054
vn 0.000000 -0.435469 -0.900174
vn 0.000000 -1.000000 0.000000
vn 0.000000 -0.999969 0.000000
vn -0.000031 -0.998291 -0.058016
vn 0.003876 -0.999969 -0.003113
vn 0.000000 -0.997223 -0.074435
vn 0.000000 0.435469 -0.900174
vn 0.000000 0.784020 -0.620685
vn -0.235511 0.761986 -0.603229
vn -0.435499 0.442824 -0.783715
vn 0.804804 0.303079 -0.510300
vn 0.339885 0.402142 -0.850124
vn 0.278146 0.753075 -0.596179
vn 0.789331 0.481338 -0.381054
vn 0.000000 0.415571 -0.909543
vn -0.339885 0.402142 -0.850124
vn -0.278146 0.753075 -0.596179
vn -0.613880 0.364635 -0.700095
vn -0.536790 0.661489 -0.523667
vn -0.000031 0.998291 -0.058016
vn 0.000000 0.997223 -0.074435
vn 0.000000 1.000000 0.000000
vn 0.003876 0.999969 -0.003113
vn -1.000000 0.000000 0.000000
vn -0.999969 0.000000 -0.001434
vn -0.999969 0.000000 -0.001068
vn -0.999969 0.000000 0.000000
vn 1.000000 0.000000 0.000000
vn 0.004303 0.000000 0.999969
vn 0.007050 0.999969 0.000000
vn 0.007050 -0.999969 0.000000
usemtl Nao_Structure
s 1
f 1/1/1 2/1/1 4/1/2
f 2/1/1 3/1/2 4/1/2
f 2/1/1 1/1/1 6/1/3
f 1/1/1 5/1/3 6/1/3
f 7/1/4 8/1/5 5/1/3
f 8/1/5 6/1/3 5/1/3
f 9/1/6 10/1/6 7/1/4
f 10/1/6 8/1/5 7/1/4
f 11/1/7 12/1/7 9/1/6
f 12/1/7 10/1/6 9/1/6
f 13/1/8 14/1/8 11/1/7
f 14/1/8 12/1/7 11/1/7
f 3/1/2 15/1/9 4/1/2
f 15/1/9 16/1/10 4/1/2
f 13/1/8 17/1/11 14/1/8
f 17/1/11 18/1/12 14/1/8
f 19/1/13 20/1/14 22/1/15
f 20/1/14 21/1/16 22/1/15
f 23/1/17 24/1/18 21/1/16
f 24/1/18 22/1/15 21/1/16
f 25/1/19 26/1/20 23/1/17
f 26/1/20 24/1/18 23/1/17
f 27/1/21 28/1/22 26/1/20
f 27/1/21 26/1/20 25/1/19
f 29/1/23 30/1/24 28/1/22
f 29/1/23 28/1/22 27/1/21
f 31/1/25 20/1/14 19/1/13
f 31/1/25 19/1/13 32/1/20
f 33/1/26 34/1/26 35/1/27
f 33/1/26 35/1/27 36/1/26
f 33/1/26 36/1/26 38/1/28
f 36/1/26 37/1/29 38/1/28
f 18/1/12 17/1/11 38/1/28
f 17/1/11 39/1/30 38/1/28
f 40/1/31 41/1/32 42/1/33
f 40/1/31 42/1/33 43/1/34
f 44/1/35 45/1/36 46/1/37
f 44/1/35 46/1/37 47/1/38
f 45/1/36 48/1/39 49/1/32
f 45/1/36 49/1/32 46/1/37
f 48/1/39 50/1/40 49/1/32
f 50/1/40 51/1/41 49/1/32
f 50/1/40 52/1/42 51/1/41
f 52/1/42 53/1/43 51/1/41
f 52/1/42 43/1/34 53/1/43
f 43/1/34 42/1/33 53/1/43
f 23/1/17 50/1/40 25/1/19
f 50/1/40 48/1/39 25/1/19
f 25/1/19 48/1/39 45/1/36
f 25/1/19 45/1/36 27/1/21
f 27/1/21 45/1/36 44/1/35
f 27/1/21 44/1/35 29/1/23
f 21/1/16 52/1/42 50/1/40
f 21/1/16 50/1/40 23/1/17
f 20/1/14 43/1/34 52/1/42
f 20/1/14 52/1/42 21/1/16
f 20/1/14 31/1/25 43/1/34
f 31/1/25 40/1/31 43/1/34
f 16/1/10 15/1/9 54/1/44
f 16/1/10 54/1/44 55/1/45
f 56/1/46 57/1/46 58/1/46
f 56/1/46 58/1/46 59/1/46
f 54/1/44 60/1/47 59/1/46
f 54/1/44 59/1/46 58/1/46
f 61/1/48 62/1/49 64/1/48
f 62/1/49 63/1/49 64/1/48
f 65/1/50 63/1/49 62/1/49
f 65/1/50 62/1/49 66/1/50
f 67/1/48 65/1/50 66/1/50
f 67/1/48 66/1/50 68/1/48
f 67/1/48 68/1/48 69/1/48
f 67/1/48 69/1/48 70/1/48
f 70/1/48 69/1/48 72/1/51
f 69/1/48 71/1/48 72/1/51
f 72/1/51 71/1/48 73/1/51
f 74/1/52 75/1/52 77/1/52
f 75/1/52 76/1/52 77/1/52
f 74/1/52 78/1/52 79/1/52
f 74/1/52 79/1/52 75/1/52
f 78/1/52 80/1/52 79/1/52
f 80/1/52 81/1/52 79/1/52
f 80/1/52 82/1/52 81/1/52
f 29/1/23 44/1/35 47/1/38
f 29/1/23 47/1/38 30/1/24
f 83/1/52 84/1/52 86/1/52
f 84/1/52 85/1/52 86/1/52
f 87/1/53 88/1/53 89/1/53
f 87/1/53 89/1/53 90/1/53
f 54/1/44 15/1/9 60/1/47
f 15/1/9 91/1/54 60/1/47
f 38/1/28 37/1/29 18/1/12
f 37/1/29 92/1/55 18/1/12
